HIERARCHY
ROOT root
{
	OFFSET 0.000000 0.000000 0.000000
	CHANNELS 6 Xposition Yposition Zposition Zrotation Yrotation Xrotation
	JOINT lhip
	{
		OFFSET 0.058581 -0.082280 -0.017664
		CHANNELS 3 Zrotation Yrotation Xrotation
		JOINT lknee
		{
			OFFSET 0.043451 -0.386469 0.008037
			CHANNELS 3 Zrotation Yrotation Xrotation
			JOINT lankle
			{
				OFFSET -0.014790 -0.426874 -0.037428
				CHANNELS 3 Zrotation Yrotation Xrotation
				JOINT ltoe
				{
					OFFSET 0.041054 -0.060286 0.122042
					CHANNELS 3 Zrotation Yrotation Xrotation
					End Site
					{
						OFFSET 0.000000 0.000000 0.000000
					}
				}
			}
		}
	}
	JOINT rhip
	{
		OFFSET -0.060310 -0.090513 -0.013543
		CHANNELS 3 Zrotation Yrotation Xrotation
		JOINT rknee
		{
			OFFSET -0.043257 -0.383688 -0.004843
			CHANNELS 3 Zrotation Yrotation Xrotation
			JOINT rankle
			{
				OFFSET 0.019056 -0.420046 -0.034562
				CHANNELS 3 Zrotation Yrotation Xrotation
				JOINT rtoe
				{
					OFFSET -0.034840 -0.062106 0.130323
					CHANNELS 3 Zrotation Yrotation Xrotation
					End Site
					{
						OFFSET 0.000000 0.000000 0.000000
					}
				}
			}
		}
	}
	JOINT lowerback
	{
		OFFSET 0.004439 0.124404 -0.038385
		CHANNELS 3 Zrotation Yrotation Xrotation
		JOINT upperback
		{
			OFFSET 0.004488 0.137956 0.026820
			CHANNELS 3 Zrotation Yrotation Xrotation
			JOINT chest
			{
				OFFSET -0.002265 0.056032 0.002855
				CHANNELS 3 Zrotation Yrotation Xrotation
				JOINT lowerneck
				{
					OFFSET -0.013390 0.211636 -0.033468
					CHANNELS 3 Zrotation Yrotation Xrotation
					JOINT upperneck
					{
						OFFSET 0.010113 0.088937 0.050410
						CHANNELS 3 Zrotation Yrotation Xrotation
						End Site
						{
							OFFSET 0.000000 0.000000 0.000000
						}
					}
				}
				JOINT lclavicle
				{
					OFFSET 0.071702 0.114000 -0.018898
					CHANNELS 3 Zrotation Yrotation Xrotation
					JOINT lshoulder
					{
						OFFSET 0.122921 0.045205 -0.019046
						CHANNELS 3 Zrotation Yrotation Xrotation
						JOINT lelbow
						{
							OFFSET 0.255332 -0.015649 -0.022946
							CHANNELS 3 Zrotation Yrotation Xrotation
							JOINT lwrist
							{
								OFFSET 0.265709 0.012698 -0.007375
								CHANNELS 3 Zrotation Yrotation Xrotation
								End Site
								{
									OFFSET 0.000000 0.000000 0.000000
								}
							}
						}
					}
				}
				JOINT rclavicle
				{
					OFFSET -0.082954 0.112472 -0.023707
					CHANNELS 3 Zrotation Yrotation Xrotation
					JOINT rshoulder
					{
						OFFSET -0.113228 0.046853 -0.008472
						CHANNELS 3 Zrotation Yrotation Xrotation
						JOINT relbow
						{
							OFFSET -0.260127 -0.014369 -0.031269
							CHANNELS 3 Zrotation Yrotation Xrotation
							JOINT rwrist
							{
								OFFSET -0.269108 0.006794 -0.006027
								CHANNELS 3 Zrotation Yrotation Xrotation
								End Site
								{
									OFFSET 0.000000 0.000000 0.000000
								}
							}
						}
					}
				}
			}
		}
	}
}
MOTION
Frames: 10
Frame Time: 0.033333
1.240028 0.714937 1.011730 -84.486271 1.722678 83.944750 -1.731155 1.229189 6.688528 -2.927675 -10.948757 7.425226 5.172704 8.317819 -13.540202 0.000000 -0.000000 0.000000 -3.552953 -4.396378 -7.356773 -1.035270 -9.898524 38.619289 7.675487 -7.438397 -8.887366 0.000000 -0.000000 0.000000 0.851697 0.507416 15.438200 0.935395 1.503225 -0.783397 0.112992 0.123101 2.980653 0.459526 4.760365 3.786452 -5.407668 0.285126 14.725763 -27.308892 4.699170 0.341339 -57.680672 -6.881523 7.245597 11.246662 -25.090391 1.054760 -4.487434 -3.967701 -7.401505 28.222243 1.813451 1.618055 55.676815 8.339065 12.878537 -15.881868 23.605194 -11.712934 4.048003 5.253939 -5.828389 
1.240504 0.709913 1.011752 -85.133904 2.438449 83.311442 -0.926072 1.466915 7.702039 -3.578027 -11.680869 6.903859 6.184826 9.424676 -13.909029 0.000000 -0.000000 0.000000 -5.017940 -2.887405 -12.942207 -0.316514 -10.908866 48.348268 8.814698 -6.722396 -2.117098 0.000000 -0.000000 0.000000 0.809323 -0.791910 16.640776 1.186959 2.067222 -0.461597 0.055395 -0.057262 3.113955 0.442333 4.648297 3.764165 -5.580958 0.847472 14.014873 -26.812043 4.417741 0.567105 -57.793488 -6.874308 7.149326 11.411023 -24.889517 0.948079 -4.665711 -3.691124 -8.082783 28.303814 1.839088 1.903966 55.558445 9.160661 13.017037 -17.024504 25.022363 -12.822579 3.577060 5.418353 -6.144631 
1.240166 0.706486 1.010581 -85.377011 3.070665 82.244614 -0.012060 2.077424 9.178705 -4.196919 -12.742458 6.398491 7.104573 9.515684 -13.052734 0.000000 -0.000000 0.000000 -6.930006 -2.588741 -18.774582 -0.238702 -12.549523 60.217764 6.725593 -7.685516 -2.699727 0.000000 -0.000000 0.000000 0.630100 -2.209570 18.188090 1.473857 2.330525 0.059471 -0.176261 -0.364704 3.196319 0.899596 5.354899 3.890566 -6.212349 1.132088 13.702999 -26.572475 3.966576 0.832193 -56.904486 -6.784630 6.746825 11.072633 -25.215155 1.420199 -4.901549 -3.474087 -8.691548 28.666976 2.336475 2.283978 55.142267 9.614990 12.819724 -18.147287 26.687789 -13.619666 3.190225 5.270884 -5.773938 
1.236763 0.703065 1.011449 -84.892743 4.194787 80.585181 1.581028 3.163144 11.294980 -4.585057 -14.552367 6.358351 7.047539 9.980803 -14.346539 0.000000 -0.000000 0.000000 -8.962070 -3.392872 -25.868803 -2.344148 -14.449017 77.525833 5.330018 -9.083212 -7.524056 0.000000 -0.000000 0.000000 0.814222 -3.988351 20.082526 1.961281 2.411133 0.244280 -0.561565 -0.947089 3.522375 1.590536 6.331780 4.860960 -7.253374 1.094601 14.512555 -26.778659 3.207285 1.194782 -55.322039 -6.942628 6.178435 10.551817 -24.598144 1.501998 -4.952239 -2.945905 -7.724986 29.317016 2.533145 2.154968 54.234715 9.635864 12.268254 -18.701359 28.036630 -14.843543 3.658859 5.265214 -5.257123 
1.233112 0.701553 1.013468 -84.263715 5.132977 79.646430 2.767739 3.593460 12.571858 -4.681571 -16.010398 6.396418 7.009405 10.172057 -14.284351 0.000000 -0.000000 0.000000 -10.044299 -3.718870 -29.934778 -2.661172 -15.235847 87.596609 4.837293 -8.688100 -9.545097 0.000000 -0.000000 0.000000 1.116698 -5.255501 20.993555 2.328014 2.527552 0.397985 -0.740776 -1.338176 3.779894 1.858357 6.829792 5.504668 -7.803361 1.187713 15.008678 -26.938668 2.836858 1.005353 -54.736671 -6.921090 5.903551 10.659953 -23.778514 1.456510 -4.448090 -2.417205 -7.044485 29.572524 2.279440 1.702041 53.700122 9.395731 11.994793 -18.530450 28.423814 -14.556291 3.467254 5.470782 -4.382012 
1.228014 0.700832 1.016501 -83.478522 6.310321 78.552600 4.554495 4.000366 14.094921 -5.109103 -17.714086 6.507868 6.960958 10.385807 -14.500643 0.000000 -0.000000 0.000000 -11.605443 -4.510620 -35.794528 -2.400169 -16.523784 100.449587 3.858075 -8.180064 -12.317185 0.000000 -0.000000 0.000000 1.285205 -6.636492 21.744799 2.931844 2.553649 0.987907 -1.015072 -1.787779 3.927859 2.445007 7.169307 6.578582 -8.328166 0.836120 15.448053 -26.774993 2.451710 1.434839 -54.199857 -7.145047 5.581483 10.640883 -23.592663 0.905535 -4.778864 -2.249248 -8.273027 29.741524 2.179571 2.270499 53.285006 9.267638 11.350562 -18.838285 28.731086 -15.195856 3.956242 5.073494 -4.831193 
1.220517 0.700066 1.019864 -81.810028 7.897112 77.361486 6.853839 4.284473 15.732534 -5.510896 -20.066617 6.703005 6.834047 10.586712 -14.977880 0.000000 -0.000000 0.000000 -13.411074 -5.995711 -40.768052 -2.412144 -18.563301 111.804328 3.169888 -6.481879 -15.541740 0.000000 -0.000000 0.000000 1.822126 -8.253079 22.808800 3.533323 2.389238 1.259217 -1.207489 -2.271588 3.923386 3.158729 7.605567 7.518262 -8.558793 0.088998 16.084777 -26.447783 2.108806 1.673121 -53.798782 -7.224815 5.404126 10.405629 -23.396978 0.855769 -4.980870 -1.671314 -8.967221 29.880211 1.893759 2.520624 52.737484 8.636645 10.191119 -18.341040 28.366107 -15.666278 4.750865 4.758232 -4.898503 
1.211588 0.701110 1.022802 -80.474623 9.469452 76.175959 9.520593 4.867573 17.421739 -5.990107 -22.139597 6.952510 6.538802 10.190485 -15.813296 0.000000 -0.000000 0.000000 -14.259059 -8.168781 -45.705396 -2.436323 -19.868033 121.143682 3.467033 -3.997714 -18.466757 0.000000 -0.000000 0.000000 1.992709 -9.115677 23.973308 4.221014 2.354051 1.540968 -0.983495 -2.814404 3.825838 3.843326 8.059001 7.881744 -8.465767 -0.809141 16.716259 -26.183266 1.895235 1.920731 -53.794301 -7.254008 5.241980 10.652814 -23.675049 0.161362 -4.024390 -1.189205 -8.445769 30.174529 1.561724 2.686933 51.762925 7.805472 8.964041 -17.147243 27.744041 -15.902874 5.281971 4.437542 -4.642777 
1.203117 0.700724 1.024497 -79.500387 10.459958 75.247211 11.167505 5.301862 18.896540 -6.123201 -23.824873 6.995730 6.699827 10.273590 -16.036965 0.000000 -0.000000 0.000000 -15.239492 -10.188847 -51.033112 -2.044028 -21.564454 127.438100 2.645628 -2.541030 -20.645511 0.000000 -0.000000 0.000000 1.807542 -9.964706 25.011374 4.624256 2.584247 1.807775 -0.876914 -2.967671 3.841749 4.565002 8.443848 7.745810 -8.411407 -1.692555 17.422477 -25.934662 1.872862 1.773911 -53.451820 -7.480829 5.435023 10.215743 -24.641282 0.295021 -4.036682 -1.497849 -8.993907 30.706604 1.191282 2.947808 50.837732 7.297455 8.137598 -16.280178 26.273662 -15.576467 4.991536 4.195765 -4.205532 
1.189992 0.700586 1.025584 -77.951429 11.648509 74.033957 13.400556 5.370546 21.089316 -6.418540 -25.945778 6.738785 6.437880 10.201255 -17.060769 0.000000 -0.000000 0.000000 -16.323590 -12.833861 -56.404157 -3.164391 -23.338734 130.992682 2.821101 -1.113737 -21.605307 0.000000 -0.000000 0.000000 1.598238 -11.096045 26.119707 4.877604 2.880935 2.011220 -0.656676 -3.231557 4.212395 5.238484 8.704276 7.826481 -8.159910 -2.560676 17.916441 -25.576029 2.187327 1.889942 -53.177028 -8.224552 5.671239 10.270214 -26.151087 0.771425 -3.180091 -0.998257 -8.559816 31.227828 0.889364 3.072560 50.153353 6.699077 7.178884 -14.772125 23.286052 -15.419214 4.888546 3.304246 -3.276268 
